<svg width="21" height="19" viewBox="0 0 21 19" fill="none" xmlns="http://www.w3.org/2000/svg">
<path d="M9.8392 8.50332V4.76336H11.8392V8.50332H15.8392V10.3733H11.8392V14.1133H9.8392V10.3733H5.8392V8.50332H9.8392ZM10.8392 18.7882C5.31635 18.7882 0.839203 14.6021 0.839203 9.43831C0.839203 4.2745 5.31635 0.0884094 10.8392 0.0884094C16.362 0.0884094 20.8392 4.2745 20.8392 9.43831C20.8392 14.6021 16.362 18.7882 10.8392 18.7882ZM10.8392 16.9182C15.2575 16.9182 18.8392 13.5694 18.8392 9.43831C18.8392 5.30726 15.2575 1.95839 10.8392 1.95839C6.42092 1.95839 2.8392 5.30726 2.8392 9.43831C2.8392 13.5694 6.42092 16.9182 10.8392 16.9182Z" fill="black"/>
</svg>
