<svg width="20" height="19" viewBox="0 0 20 19" fill="none" xmlns="http://www.w3.org/2000/svg">
<path d="M10.001 1.93063C12.35 -0.1779 15.98 -0.1079 18.2426 2.15946C20.5053 4.42682 20.583 8.0391 18.4786 10.3951L9.9999 18.8871L1.52138 10.3951C-0.582952 8.0391 -0.504292 4.42111 1.75736 2.15946C4.02157 -0.10475 7.64519 -0.18103 10.001 1.93063ZM16.827 3.5722C15.3279 2.07004 12.9076 2.00911 11.337 3.41897L10.0019 4.61734L8.6661 3.41991C7.09098 2.00807 4.67506 2.07018 3.17157 3.57367C1.68183 5.06341 1.60704 7.4494 2.97993 9.0253L9.9999 16.0564L17.0201 9.0253C18.3935 7.4488 18.319 5.06735 16.827 3.5722Z" fill="black"/>
</svg>
