<svg width="20" height="20" viewBox="0 0 20 20" fill="none" xmlns="http://www.w3.org/2000/svg">
<path d="M10 0.48526C15.5222 0.48526 20 4.26957 20 8.94182C20 11.8594 17.5111 14.2271 14.4444 14.2271H12.4778C11.5556 14.2271 10.8111 14.9354 10.8111 15.8127C10.8111 16.2144 10.9778 16.5844 11.2333 16.8592C11.5 17.1447 11.6667 17.5146 11.6667 17.9269C11.6667 18.8043 10.9 19.5125 10 19.5125C4.47778 19.5125 0 15.2525 0 9.99888C0 4.74525 4.47778 0.48526 10 0.48526ZM5.5 9.99888C6.32843 9.99888 7 9.35994 7 8.57184C7 7.7837 6.32843 7.14479 5.5 7.14479C4.67157 7.14479 4 7.7837 4 8.57184C4 9.35994 4.67157 9.99888 5.5 9.99888ZM14.5 9.99888C15.3284 9.99888 16 9.35994 16 8.57184C16 7.7837 15.3284 7.14479 14.5 7.14479C13.6716 7.14479 13 7.7837 13 8.57184C13 9.35994 13.6716 9.99888 14.5 9.99888ZM10 7.14479C10.8284 7.14479 11.5 6.50589 11.5 5.71775C11.5 4.92961 10.8284 4.29071 10 4.29071C9.1716 4.29071 8.5 4.92961 8.5 5.71775C8.5 6.50589 9.1716 7.14479 10 7.14479Z" fill="black"/>
</svg>
