<svg width="21" height="20" viewBox="0 0 21 20" fill="none" xmlns="http://www.w3.org/2000/svg">
<path d="M10.7972 0.321533C16.3194 0.321533 20.7972 4.10584 20.7972 8.77809C20.7972 11.6956 18.3083 14.0634 15.2416 14.0634H13.275C12.3528 14.0634 11.6083 14.7717 11.6083 15.649C11.6083 16.0507 11.775 16.4207 12.0305 16.6955C12.2972 16.9809 12.4639 17.3509 12.4639 17.7631C12.4639 18.6406 11.6972 19.3488 10.7972 19.3488C5.27502 19.3488 0.797241 15.0888 0.797241 9.83515C0.797241 4.58152 5.27502 0.321533 10.7972 0.321533ZM9.60834 15.649C9.60834 13.7208 11.2482 12.1607 13.275 12.1607H15.2416C17.2037 12.1607 18.7972 10.6448 18.7972 8.77809C18.7972 5.21077 15.2649 2.22426 10.7972 2.22426C6.37959 2.22426 2.79724 5.63237 2.79724 9.83515C2.79724 13.8214 6.01984 17.0926 10.1212 17.4192C9.79204 16.8912 9.60834 16.2817 9.60834 15.649ZM6.29724 9.83515C5.46881 9.83515 4.79724 9.19622 4.79724 8.40811C4.79724 7.61997 5.46881 6.98107 6.29724 6.98107C7.12567 6.98107 7.79724 7.61997 7.79724 8.40811C7.79724 9.19622 7.12567 9.83515 6.29724 9.83515ZM15.2972 9.83515C14.4688 9.83515 13.7972 9.19622 13.7972 8.40811C13.7972 7.61997 14.4688 6.98107 15.2972 6.98107C16.1256 6.98107 16.7972 7.61997 16.7972 8.40811C16.7972 9.19622 16.1256 9.83515 15.2972 9.83515ZM10.7972 6.98107C9.96884 6.98107 9.29724 6.34216 9.29724 5.55402C9.29724 4.76589 9.96884 4.12698 10.7972 4.12698C11.6256 4.12698 12.2972 4.76589 12.2972 5.55402C12.2972 6.34216 11.6256 6.98107 10.7972 6.98107Z" fill="black"/>
</svg>
