<svg width="17" height="20" viewBox="0 0 17 20" fill="none" xmlns="http://www.w3.org/2000/svg">
<path d="M1.44153 17.3763H15.4415V19.279H1.44153V17.3763ZM8.44153 15.4736C4.02325 15.4736 0.441528 12.0661 0.441528 7.86266C0.441528 3.65928 4.02325 0.25177 8.44153 0.25177C12.8598 0.25177 16.4415 3.65928 16.4415 7.86266C16.4415 12.0661 12.8598 15.4736 8.44153 15.4736ZM8.44153 13.5708C11.7552 13.5708 14.4415 11.0152 14.4415 7.86266C14.4415 4.71013 11.7552 2.15449 8.44153 2.15449C5.12782 2.15449 2.44153 4.71013 2.44153 7.86266C2.44153 11.0152 5.12782 13.5708 8.44153 13.5708Z" fill="black"/>
</svg>
