<svg width="20" height="20" viewBox="0 0 20 20" fill="none" xmlns="http://www.w3.org/2000/svg">
<path d="M7.95434 0.871165C9.28793 0.605583 10.681 0.597202 12.0452 0.868549C12.2222 1.9717 12.9051 2.9911 14 3.59247C15.0948 4.19383 16.3643 4.24683 17.4569 3.84103C18.3861 4.82938 19.075 5.98134 19.5 7.21287C18.5855 7.91027 18 8.9819 18 10.1837C18 11.3862 18.5862 12.4584 19.5016 13.1557C19.2903 13.765 19.0107 14.363 18.6602 14.9405C18.3097 15.518 17.9052 16.0474 17.4562 16.5261C16.3637 16.1205 15.0946 16.1737 14 16.7749C12.906 17.3758 12.2233 18.3941 12.0456 19.4963C10.7121 19.7618 9.31903 19.7702 7.95476 19.4988C7.77781 18.3957 7.09484 17.3762 6 16.7749C4.90517 16.1735 3.63572 16.1205 2.54305 16.5264C1.6139 15.538 0.924993 14.386 0.499973 13.1545C1.41445 12.4571 2.00001 11.3854 2.00001 10.1837C2.00001 8.98124 1.41377 7.90903 0.498383 7.21165C0.709663 6.60238 0.989273 6.00442 1.33975 5.42689C1.69024 4.84935 2.09476 4.32 2.54374 3.84129C3.63626 4.2468 4.9054 4.1937 6 3.59247C7.09397 2.99158 7.77673 1.97332 7.95434 0.871165ZM10 13.0378C11.6568 13.0378 13 11.76 13 10.1837C13 8.60745 11.6568 7.32961 10 7.32961C8.34313 7.32961 7 8.60745 7 10.1837C7 11.76 8.34313 13.0378 10 13.0378Z" fill="black"/>
</svg>
