<svg width="20" height="21" viewBox="0 0 20 21" fill="none" xmlns="http://www.w3.org/2000/svg">
<path d="M1.17894 15.1837C0.746686 14.435 0.422246 13.6537 0.200806 12.8576C1.17328 12.3614 1.8392 11.3503 1.8392 10.1837C1.8392 9.01797 1.17428 8.00747 0.203006 7.51088C0.649726 5.89998 1.49805 4.39974 2.70422 3.17348C3.62018 3.76763 4.82883 3.83881 5.8392 3.25547C6.84957 2.67213 7.39225 1.58982 7.33568 0.49951C9.00078 0.0680702 10.7242 0.0835101 12.3426 0.50209C12.287 1.59153 12.8296 2.67259 13.8392 3.25547C14.8496 3.83879 16.0582 3.76763 16.9741 3.17354C17.5528 3.76333 18.0672 4.43498 18.4995 5.18368C18.9317 5.93237 19.2562 6.71372 19.4776 7.50975C18.5051 8.00594 17.8392 9.01707 17.8392 10.1837C17.8392 11.3495 18.5041 12.3599 19.4754 12.8565C19.0287 14.4674 18.1804 15.9676 16.9742 17.1939C16.0582 16.5998 14.8496 16.5286 13.8392 17.1119C12.8288 17.6952 12.2862 18.7776 12.3427 19.8679C10.6777 20.2993 8.95428 20.2839 7.33581 19.8653C7.39139 18.7758 6.84877 17.6948 5.8392 17.1119C4.82886 16.5286 3.62027 16.5997 2.70432 17.1938C2.12565 16.604 1.6112 15.9324 1.17894 15.1837ZM6.8392 15.3799C7.93058 16.01 8.71438 17.0062 9.08978 18.1494C9.58808 18.1968 10.0897 18.1975 10.5881 18.151C10.9633 17.0072 11.7473 16.0103 12.8392 15.3799C13.9311 14.7494 15.1865 14.569 16.3647 14.8159C16.6541 14.4075 16.9043 13.9727 17.1124 13.5175C16.3101 12.6208 15.8392 11.4439 15.8392 10.1837C15.8392 8.92347 16.3101 7.74667 17.1124 6.84997C17.0083 6.62397 16.8933 6.40169 16.7674 6.18368C16.6415 5.96566 16.5065 5.75495 16.3628 5.55189C15.1852 5.79823 13.9306 5.61761 12.8392 4.98752C11.7478 4.35742 10.9641 3.36115 10.5886 2.21802C10.0904 2.17061 9.58868 2.16993 9.09038 2.21639C8.71508 3.36018 7.93108 4.35711 6.8392 4.98752C5.74728 5.61794 4.49193 5.79841 3.31376 5.5515C3.02433 5.95988 2.77411 6.39464 2.56604 6.84984C3.36829 7.74658 3.8392 8.92347 3.8392 10.1837C3.8392 11.4439 3.36831 12.6207 2.56604 13.5174C2.67015 13.7434 2.78512 13.9657 2.911 14.1837C3.03687 14.4017 3.17188 14.6124 3.3156 14.8155C4.49325 14.5692 5.74786 14.7498 6.8392 15.3799ZM9.83918 13.1837C8.18237 13.1837 6.8392 11.8406 6.8392 10.1837C6.8392 8.52687 8.18237 7.18368 9.83918 7.18368C11.4961 7.18368 12.8392 8.52687 12.8392 10.1837C12.8392 11.8406 11.4961 13.1837 9.83918 13.1837ZM9.83918 11.1837C10.3915 11.1837 10.8392 10.736 10.8392 10.1837C10.8392 9.63137 10.3915 9.18367 9.83918 9.18367C9.28687 9.18367 8.83918 9.63137 8.83918 10.1837C8.83918 10.736 9.28687 11.1837 9.83918 11.1837Z" fill="black"/>
</svg>
