<svg width="74" height="75" viewBox="0 0 74 75" fill="none" xmlns="http://www.w3.org/2000/svg">
<rect width="72.349" height="73.2183" transform="translate(1.1328 0.751152)" fill="white"/>
<path d="M57.0403 3.99096C64.2881 1.93321 68.3226 0.808674 73.0307 1.301C73.8182 2.9505 73.9433 4.70499 70.2838 18.0104C72.9488 28.119 74.2542 33.454 72.9174 36.5168C71.7095 37.189 68.4349 36.5077 62.4541 35.2356C56.2936 42.8401 54.763 48.4891 41.3853 50.8949C43.1696 53.3798 44.4651 54.7467 47.8625 57.0875H49.7844C55.5271 51.187 58.9824 46.6578 63.593 46.6242C66.197 46.4951 68.1456 48.1149 72.2056 53.0303C73.7397 54.9353 73.9494 55.9854 72.2056 57.7993C65.7678 62.2324 62.0979 61.8793 55.4786 57.7993L51.4926 61.0735C51.4926 61.0735 48.5408 62.1154 46.7948 61.0735C45.0488 60.0315 39.1499 54.6411 37.8975 54.4539C36.6451 54.2666 34.2613 55.5421 33.9827 58.3687C34.5054 60.9415 39.3194 65.388 39.5346 67.4084C39.7498 69.4287 38.0227 71.8257 36.0469 73.4586C33.7483 73.821 32.8156 73.5216 32.9862 70.3979C34.7146 69.699 35.1414 69.032 35.0504 67.4084C31.3119 61.999 29.6126 60.5292 27.2207 60.4329C25.8337 60.6288 25.0275 60.8298 23.0924 62.7818C20.9282 65.1866 20.4182 66.5483 23.0924 69.0455C24.5903 70.5133 25.515 70.3903 27.2207 69.5437C28.9061 70.8946 28.9609 71.7459 27.2207 73.4586C25.4152 74.1807 24.5336 74.0976 23.0924 73.4586C19.1399 71.6068 17.2153 68.8121 17.3269 66.2695C17.4384 63.7269 18.2616 62.3108 21.5976 57.5857C22.6725 55.6069 22.4483 54.7367 21.5976 53.315C19.9073 52.3013 18.8606 52.0065 16.3304 53.315C13.5786 55.9894 11.9626 57.1944 8.6431 57.5857L5.36888 56.9451C3.14102 56.5046 2.20037 55.308 1.24052 50.9661V47.6919C2.97346 45.7185 3.86817 45.869 5.36888 47.6919V50.9661C5.76698 52.7762 6.5 53.2743 8.6431 53.315C11.1095 52.6428 12.3936 51.7421 14.4797 49.0443V46.1971C11.8976 43.1847 10.6076 41.1386 7.2907 39.7911C5.91798 39.9116 5.19281 40.298 3.98089 41.5349C1.46824 41.7345 0.849849 41.1509 1.24052 38.7946C2.46799 36.8473 3.39064 35.8937 7.2907 35.5203C9.06367 35.9203 11.3542 37.3875 16.3304 40.8587C16.3304 40.8587 20.8146 40.5028 20.1029 37.0863C19.3911 33.6697 13.1273 29.1854 13.1273 25.9824C13.1273 22.7794 14.1128 22.0684 17.3269 18.8645C15.6632 17.1992 14.8172 15.833 13.6256 11.8179C13.8836 5.69886 17.8251 0.269319 19.3911 0.785161C20.957 1.301 28.3596 8.11656 28.3596 11.8179C28.3596 15.5191 17.3269 24.1318 17.3269 25.9824C17.3269 27.833 20.1247 30.7646 24.0177 32.9579C25.5466 26.3915 25.1802 23.1635 39.6058 11.8179C37.9795 6.17924 37.2219 3.22258 38.3958 1.301C40.6687 1.17206 43.0794 1.36741 57.0403 3.99096Z" fill="black" stroke="black"/>
<circle cx="27.2629" cy="40.6153" r="1.97363" fill="#D9D9D9" stroke="white"/>
<circle cx="34.0446" cy="47.4736" r="1.97363" fill="#D9D9D9" stroke="white"/>
<path d="M44.5165 42.0688C37.6938 42.1572 32.6297 36.4457 32.6297 29.9684C32.6297 23.4912 61.6699 4.77122 64.5889 10.0384C67.5078 15.3056 51.3392 41.9804 44.5165 42.0688Z" fill="white" stroke="white"/>
</svg>
