<svg width="74" height="75" viewBox="0 0 74 75" fill="none" xmlns="http://www.w3.org/2000/svg">
<rect width="72.349" height="73.2183" transform="translate(1.1328 0.751152)" fill="white"/>
<path d="M57.0403 3.99096C64.2881 1.93321 68.3226 0.808674 73.0307 1.301C73.8182 2.9505 73.9433 4.70499 70.2838 18.0104C72.9488 28.119 74.2542 33.454 72.9174 36.5168C71.7095 37.189 68.4348 36.5077 62.4541 35.2356C56.2936 42.8401 54.763 48.4891 41.3853 50.8949C43.1696 53.3798 44.4651 54.7467 47.8625 57.0875H49.7843C55.5271 51.187 58.9824 46.6578 63.593 46.6242C66.197 46.4951 68.1455 48.1149 72.2056 53.0303C73.7397 54.9353 73.9493 55.9854 72.2056 57.7993C65.7678 62.2324 62.0979 61.8793 55.4786 57.7993L51.4926 61.0735C51.4926 61.0735 48.5408 62.1154 46.7948 61.0735C45.0488 60.0315 39.1499 54.6411 37.8975 54.4539C36.6451 54.2666 34.2613 55.5421 33.9827 58.3687C34.5053 60.9415 39.3194 65.388 39.5346 67.4084C39.7498 69.4287 38.0227 71.8257 36.0469 73.4586C33.7483 73.821 32.8156 73.5216 32.9862 70.3979C34.7146 69.699 35.1414 69.032 35.0504 67.4084C31.3119 61.999 29.6126 60.5292 27.2207 60.4329C25.8337 60.6288 25.0275 60.8298 23.0924 62.7818C20.9282 65.1866 20.4182 66.5483 23.0924 69.0455C24.5903 70.5133 25.515 70.3903 27.2207 69.5437C28.9061 70.8946 28.9609 71.7459 27.2207 73.4586C25.4152 74.1807 24.5336 74.0976 23.0924 73.4586C19.1399 71.6068 17.2153 68.8121 17.3269 66.2695C17.4384 63.7269 18.2616 62.3108 21.5976 57.5857C22.6725 55.6069 22.4483 54.7367 21.5976 53.315C19.9073 52.3013 18.8606 52.0065 16.3304 53.315C13.5786 55.9894 11.9626 57.1944 8.6431 57.5857L5.36888 56.9451C3.14102 56.5046 2.20037 55.308 1.24052 50.9661V47.6919C2.97346 45.7185 3.86817 45.869 5.36888 47.6919V50.9661C5.76698 52.7762 6.5 53.2743 8.6431 53.315C11.1095 52.6428 12.3936 51.7421 14.4797 49.0443V46.1971C11.8976 43.1847 10.6076 41.1386 7.2907 39.7911C5.91798 39.9116 5.19281 40.298 3.98089 41.5349C1.46824 41.7345 0.849849 41.1509 1.24052 38.7946C2.46799 36.8473 3.39064 35.8937 7.2907 35.5203C9.06367 35.9203 11.3542 37.3875 16.3304 40.8587C16.3304 40.8587 20.8146 40.5028 20.1029 37.0863C19.3911 33.6697 13.1273 29.1854 13.1273 25.9824C13.1273 22.7794 14.1128 22.0684 17.3269 18.8645C15.6632 17.1992 14.8172 15.833 13.6256 11.8179C13.8836 5.69886 17.8251 0.269319 19.3911 0.785161C20.957 1.301 28.3596 8.11656 28.3596 11.8179C28.3596 15.5191 17.3269 24.1318 17.3269 25.9824C17.3269 27.833 20.1247 30.7646 24.0177 32.9579C25.5466 26.3915 25.1802 23.1635 39.6058 11.8179C37.9795 6.17924 37.2219 3.22258 38.3958 1.301C40.6687 1.17206 43.0794 1.36741 57.0403 3.99096Z" fill="black"/>
<path fill-rule="evenodd" clip-rule="evenodd" d="M18.5067 0.400836C18.8286 0.262392 19.1939 0.193796 19.5475 0.310261C19.8161 0.398746 20.1531 0.597816 20.5099 0.84391C20.879 1.09849 21.3096 1.432 21.775 1.82358C22.706 2.60707 23.7936 3.63799 24.831 4.76898C25.8672 5.89861 26.8636 7.13944 27.6043 8.343C28.3349 9.53033 28.8596 10.7492 28.8596 11.8179C28.8596 12.3946 28.6481 13.0167 28.3312 13.6399C28.0107 14.2702 27.5603 14.9442 27.0334 15.6354C25.9797 17.0177 24.5826 18.5172 23.2023 19.942C22.7227 20.4372 22.2462 20.9222 21.7855 21.391C20.9106 22.2815 20.0929 23.1138 19.4189 23.8473C18.9055 24.4059 18.4908 24.891 18.207 25.286C18.065 25.4836 17.9639 25.6475 17.9002 25.7782C17.8686 25.843 17.8491 25.8935 17.8381 25.9311C17.8275 25.9668 17.8269 25.9827 17.8269 25.9827C17.8269 26.3259 17.9594 26.7688 18.2597 27.2978C18.5569 27.8215 19.0001 28.3972 19.5735 28.9958C20.6018 30.0694 22.0203 31.1877 23.681 32.1838C23.7472 31.8872 23.8107 31.5958 23.8732 31.3087C24.4293 28.7567 24.9125 26.5389 26.5514 23.9152C28.4782 20.8306 31.9872 17.1954 39.0323 11.6332C38.2684 8.97787 37.6981 6.89565 37.456 5.23779C37.204 3.51258 37.2911 2.15018 37.9691 1.04033L38.1057 0.816643L38.3674 0.801797C40.7081 0.669018 43.1794 0.878863 57.017 3.47783C64.172 1.44662 68.286 0.302115 73.0827 0.803706L73.3613 0.832834L73.4819 1.08557C73.6959 1.53376 73.8725 2.00796 73.9454 2.68294C74.017 3.345 73.9867 4.18041 73.8199 5.35502C73.4892 7.68352 72.6066 11.4432 70.8016 18.0131C72.1152 22.9974 73.1019 26.842 73.5946 29.8243C74.0892 32.8179 74.1061 35.0433 73.3757 36.7168L73.3081 36.8716L73.1605 36.9537C72.7524 37.1809 72.2238 37.2677 71.6234 37.279C71.0141 37.2905 70.2743 37.2245 69.4049 37.1003C67.7257 36.8604 65.491 36.3924 62.6506 35.7886C61.6098 37.0866 60.7037 38.3227 59.8381 39.5037C59.5029 39.9609 59.1739 40.4098 58.8454 40.8509C57.6225 42.4929 56.4145 44.0158 54.9692 45.3785C52.1728 48.0151 48.5342 50.0091 42.2568 51.2399C43.7635 53.2589 45.0607 54.5389 48.0184 56.5875H49.573C50.3909 55.7448 51.1666 54.926 51.9088 54.1426C53.6881 52.2647 55.2745 50.5904 56.7854 49.2783C58.9726 47.3788 61.1 46.1458 63.5789 46.1243C65.0151 46.0555 66.2636 46.4795 67.6558 47.5375C69.0272 48.5796 70.5619 50.2551 72.5911 52.7119L72.5951 52.7167C73.3625 53.6697 73.9018 54.5232 73.9345 55.4309C73.9682 56.3677 73.4636 57.2121 72.5661 58.1458L72.531 58.1823L72.4892 58.2111C69.2351 60.4519 66.6034 61.5384 63.9015 61.4916C61.294 61.4465 58.7065 60.346 55.5211 58.4114L51.742 61.5157L51.6591 61.545L51.4926 61.0735C51.6591 61.545 51.6591 61.545 51.6591 61.545L51.6576 61.5455L51.6551 61.5464L51.6468 61.5492L51.6177 61.5591C51.593 61.5674 51.5575 61.579 51.5124 61.5932C51.4222 61.6215 51.2932 61.6602 51.1335 61.703C50.8149 61.7883 50.3701 61.891 49.866 61.9596C48.8847 62.0933 47.5642 62.1149 46.5386 61.5028C46.0674 61.2216 45.3442 60.6665 44.5317 60.0163C44.0252 59.6108 43.4695 59.1566 42.9018 58.6925C42.5515 58.4061 42.1967 58.116 41.846 57.8313C40.9215 57.081 40.0215 56.3647 39.2772 55.8256C38.9046 55.5556 38.5792 55.3361 38.3143 55.1803C38.0297 55.0129 37.8747 54.956 37.8236 54.9484C37.3763 54.8815 36.6053 55.0799 35.8929 55.667C35.2148 56.2257 34.6299 57.1081 34.4885 58.3409C34.6144 58.8745 34.9594 59.5425 35.4593 60.3094C35.9751 61.1006 36.6204 61.9454 37.2704 62.791L37.357 62.9036C37.9722 63.7039 38.5877 64.5043 39.067 65.2298C39.5544 65.9674 39.9637 66.716 40.0318 67.3554C40.156 68.5208 39.7186 69.7387 39.0378 70.8414C38.3521 71.9521 37.3871 72.9996 36.3654 73.844L36.2599 73.9312L36.1247 73.9525C35.5421 74.0443 35.0083 74.101 34.5433 74.0715C34.0736 74.0417 33.6289 73.9212 33.2687 73.6181C32.9072 73.314 32.6944 72.8797 32.5804 72.3501C32.4675 71.8253 32.4433 71.1701 32.4869 70.3706L32.5043 70.0534L32.7988 69.9343C33.6418 69.5935 34.0628 69.298 34.2874 68.9684C34.4917 68.6685 34.5833 68.2657 34.5576 67.575C32.7315 64.94 31.4237 63.2993 30.2989 62.3024C29.1989 61.3275 28.2933 60.985 27.2451 60.9344C26.5856 61.0287 26.1174 61.1213 25.5916 61.393C25.045 61.6754 24.4052 62.1686 23.456 63.1252C22.3674 64.3358 21.8275 65.1557 21.7769 65.9123C21.7291 66.6272 22.1187 67.4521 23.4336 68.68L23.4424 68.6883C24.1559 69.3874 24.6556 69.6297 25.1156 69.6639C25.5994 69.6998 26.1485 69.5177 26.9984 69.0959L27.2844 68.954L27.5334 69.1536C28.375 69.8281 28.9955 70.5102 29.0053 71.3597C29.0101 71.7831 28.8612 72.1861 28.616 72.579C28.3727 72.9691 28.0182 73.3752 27.5714 73.8149L27.4998 73.8855L27.4064 73.9228C26.4753 74.2952 25.7326 74.4809 25.0116 74.4689C24.2876 74.4569 23.6352 74.2462 22.8897 73.9156L22.8802 73.9114C18.8327 72.0151 16.7034 69.0739 16.8274 66.2476C16.9461 63.541 17.8627 62.0096 21.1721 57.3215C21.6812 56.3787 21.8422 55.7685 21.8202 55.2632C21.7991 54.7792 21.6083 54.3211 21.2324 53.6795C20.4547 53.2207 19.8845 52.973 19.2556 52.9436C18.6074 52.9134 17.8234 53.1131 16.6253 53.7256C15.2716 55.0388 14.1563 56.0293 12.9532 56.7374C11.7207 57.4629 10.4179 57.8799 8.70163 58.0823L8.6239 58.0914L5.27287 57.4358L5.27189 57.4356C4.06883 57.1977 3.14758 56.7359 2.42082 55.7071C1.72456 54.7215 1.23323 53.2495 0.752301 51.074L0.740514 51.0207V47.5035L0.86481 47.362C1.31012 46.8549 1.72418 46.4574 2.12753 46.1875C2.53545 45.9145 2.95801 45.755 3.40676 45.7685C3.85485 45.7819 4.25858 45.9657 4.63291 46.2442C5.00304 46.5197 5.37049 46.9072 5.75489 47.3741L5.86888 47.5125V50.9109C6.05734 51.7403 6.30012 52.1541 6.6412 52.3965C7.00151 52.6525 7.56756 52.7887 8.581 52.8135C9.74211 52.4919 10.6004 52.1227 11.4102 51.5347C12.2153 50.95 12.997 50.1311 13.9797 48.8728V46.3817C13.6087 45.9467 13.2661 45.5352 12.9417 45.1456C11.071 42.8987 9.80847 41.3823 7.21488 40.3005C6.63293 40.3607 6.20916 40.4752 5.80893 40.6865C5.37276 40.9168 4.93133 41.2793 4.33804 41.8849L4.20706 42.0185L4.02049 42.0334C3.37792 42.0844 2.82278 42.0887 2.36038 42.0163C1.89596 41.9436 1.48147 41.7866 1.17025 41.4786C0.854699 41.1663 0.704104 40.7574 0.653566 40.2998C0.603857 39.8497 0.646758 39.3189 0.747247 38.7128L0.763746 38.6133L0.817538 38.5279C1.43864 37.5426 2.02748 36.7319 3.00415 36.1397C3.9717 35.5531 5.26657 35.2118 7.24305 35.0226L7.32269 35.015L7.40073 35.0326C8.36604 35.2504 9.43669 35.7502 10.8668 36.6092C12.2698 37.4519 14.0532 38.662 16.4612 40.3404C16.5718 40.3253 16.7293 40.3002 16.9163 40.2606C17.3008 40.1791 17.7948 40.0391 18.2599 39.8065C18.7271 39.5729 19.1345 39.2615 19.3894 38.8526C19.6358 38.4573 19.7674 37.9275 19.6134 37.1882C19.4577 36.441 18.985 35.5906 18.3074 34.6532C17.7068 33.8222 16.9781 32.9661 16.2355 32.0935C16.1461 31.9885 16.0566 31.8834 15.9671 31.7779C15.1419 30.8064 14.316 29.8154 13.6975 28.8599C13.0858 27.9152 12.6273 26.9325 12.6273 25.9824C12.6273 24.3173 12.8863 23.2329 13.605 22.1477C14.1851 21.2717 15.0676 20.3985 16.2844 19.1945C16.3946 19.0854 16.5075 18.9737 16.6232 18.859C15.9337 18.1323 15.3732 17.4108 14.8594 16.4601C14.2665 15.3633 13.7456 13.9794 13.1463 11.9601L13.1225 11.8801L13.126 11.7968C13.259 8.64285 14.3388 5.6766 15.5871 3.55948C16.2108 2.50189 16.8888 1.63513 17.5322 1.05855C17.8531 0.770927 18.1821 0.540499 18.5067 0.400836ZM16.3304 40.8587L16.3699 41.3572L16.1913 41.3713L16.0443 41.2688C13.5549 39.5323 11.7515 38.3071 10.3519 37.4664C8.9934 36.6504 8.04903 36.2179 7.2571 36.026C5.38321 36.2114 4.2873 36.5312 3.52262 36.9948C2.77912 37.4456 2.29933 38.061 1.71782 38.9754C1.63607 39.4979 1.61468 39.8927 1.64752 40.19C1.68158 40.4984 1.76937 40.6646 1.87367 40.7678C1.98229 40.8753 2.16911 40.9742 2.51511 41.0283C2.82753 41.0773 3.23374 41.0842 3.75759 41.0499C4.31945 40.4889 4.81121 40.0824 5.34206 39.8022C5.92366 39.4951 6.51866 39.3569 7.24695 39.293L7.36713 39.2824L7.47889 39.3278C10.3964 40.5131 11.8365 42.247 13.7401 44.539C14.0931 44.964 14.4621 45.4082 14.8594 45.8717L14.9797 46.0122V49.215L14.8753 49.3501C13.8213 50.7131 12.9446 51.6562 11.9978 52.3438C11.0434 53.0369 10.0445 53.4513 8.77457 53.7974L8.70534 53.8163L8.6336 53.8149C7.54904 53.7943 6.69513 53.6615 6.06203 53.2117C5.40838 52.7473 5.08855 52.0193 4.88055 51.0735L4.86888 51.0204V47.8732C4.55242 47.4999 4.28084 47.2287 4.0359 47.0465C3.76625 46.8458 3.5566 46.7734 3.3768 46.768C3.19767 46.7627 2.97784 46.8217 2.68371 47.0185C2.41491 47.1984 2.10649 47.4786 1.74051 47.8824V50.9113C2.21519 53.0458 2.67126 54.3285 3.23757 55.1301C3.77806 55.8952 4.44106 56.252 5.46586 56.4546L8.66168 57.0799C10.2252 56.8878 11.3703 56.5088 12.446 55.8756C13.5529 55.2241 14.608 54.2917 15.9819 52.9564L16.035 52.9049L16.1007 52.8709C17.3959 52.2011 18.3837 51.9018 19.3023 51.9447C20.2231 51.9877 20.9981 52.3724 21.8548 52.8862L21.9623 52.9507L22.0267 53.0583C22.4591 53.781 22.7854 54.4451 22.8192 55.2196C22.8531 55.995 22.5918 56.8029 22.037 57.8244L22.023 57.8501L22.0061 57.8741C18.6573 62.6172 17.9306 63.9175 17.8264 66.2914C17.7273 68.5495 19.4457 71.1964 23.2999 73.0036C23.9931 73.3106 24.501 73.4603 25.0282 73.4691C25.5405 73.4776 26.1173 73.3536 26.9414 73.0313C27.3263 72.6465 27.595 72.3263 27.7676 72.0496C27.949 71.7591 28.0073 71.5436 28.0053 71.3712C28.0018 71.0643 27.8004 70.6953 27.1491 70.1339C26.4096 70.4816 25.7308 70.7123 25.0416 70.6611C24.2399 70.6016 23.5295 70.1728 22.7468 69.4069C21.3904 68.1393 20.6995 67.0359 20.7791 65.8456C20.8559 64.6977 21.6505 63.6365 22.7207 62.4473L22.7288 62.4383L22.7373 62.4297C23.7185 61.44 24.4471 60.8588 25.1325 60.5046C25.8284 60.1451 26.4474 60.0372 27.1508 59.9378L27.1956 59.9314L27.2408 59.9333C28.5655 59.9866 29.6955 60.4314 30.9622 61.554C32.203 62.6537 33.592 64.4187 35.4617 67.1241L35.5417 67.2399L35.5496 67.3804C35.5971 68.2276 35.519 68.9367 35.1138 69.5314C34.7617 70.0483 34.2077 70.411 33.472 70.7356C33.453 71.3407 33.4843 71.7973 33.558 72.1397C33.6428 72.5334 33.7748 72.7371 33.9125 72.8529C34.0515 72.9698 34.2603 73.0515 34.6066 73.0735C34.9291 73.094 35.3307 73.0604 35.8333 72.9855C36.7472 72.2135 37.5916 71.2804 38.1869 70.3161C38.8099 69.307 39.1285 68.3163 39.0374 67.4613C38.9979 67.0906 38.7247 66.5257 38.2327 65.781C37.7737 65.0864 37.1781 64.3117 36.5537 63.4995L36.4775 63.4004C35.8317 62.5602 35.1621 61.6847 34.6216 60.8555C34.0878 60.0367 33.6433 59.2097 33.4927 58.4682L33.4777 58.3945L33.4851 58.3196C33.6382 56.7662 34.3744 55.6225 35.257 54.8952C36.1192 54.1847 37.1663 53.839 37.9714 53.9594C38.2334 53.9985 38.5367 54.151 38.8212 54.3183C39.1255 54.4972 39.48 54.7377 39.8639 55.0157C40.6324 55.5725 41.5511 56.3041 42.4762 57.0549C42.8333 57.3448 43.1907 57.637 43.5417 57.924C44.1055 58.3849 44.653 58.8325 45.1566 59.2355C45.9804 59.8949 46.6493 60.4044 47.0511 60.6441C47.7714 61.074 48.7999 61.0956 49.731 60.9688C50.1831 60.9072 50.5854 60.8145 50.8748 60.737C51.0191 60.6984 51.1343 60.6638 51.2124 60.6392C51.2248 60.6353 51.2364 60.6317 51.2469 60.6283L55.4371 57.1863L55.741 57.3736C59.0341 59.4034 61.5098 60.4501 63.9188 60.4918C66.3056 60.5331 68.717 59.5882 71.8799 57.4164C72.6985 56.5563 72.9535 55.9778 72.9351 55.4669C72.9154 54.9203 72.5834 54.2969 71.8181 53.3462C69.7883 50.889 68.3193 49.2976 67.0508 48.3337C65.8061 47.3878 64.7811 47.0659 63.6178 47.1236L63.6072 47.1241L63.5966 47.1242C61.4694 47.1397 59.5667 48.1874 57.441 50.0333C55.9682 51.3123 54.4356 52.9301 52.6766 54.7868C51.8831 55.6244 51.0436 56.5106 50.1427 57.4362L49.9954 57.5875H47.7069L47.5788 57.4992C44.1363 55.1273 42.7987 53.7205 40.9791 51.1866L40.517 50.543L41.2968 50.4028C47.9129 49.213 51.5439 47.2337 54.2831 44.651C55.6627 43.3502 56.8286 41.8846 58.0434 40.2535C58.3634 39.8239 58.6873 39.3819 59.0194 38.9289C59.9417 37.6705 60.9269 36.3265 62.0656 34.9209L62.2585 34.6828L62.5582 34.7466C65.5551 35.384 67.8497 35.868 69.5463 36.1103C70.3941 36.2315 71.0733 36.2892 71.6045 36.2792C72.0299 36.2711 72.3272 36.2198 72.53 36.1451C73.0673 34.766 73.0783 32.8338 72.608 29.9873C72.1202 27.0351 71.1346 23.1989 69.8003 18.1379L69.766 18.0076L69.8017 17.8778C71.6321 11.2227 72.5072 7.48661 72.8298 5.21443C72.9908 4.08106 73.0103 3.33698 72.9512 2.79035C72.9065 2.37658 72.8157 2.06501 72.6934 1.77039C68.2196 1.36353 64.2966 2.45055 57.1769 4.47195L57.0637 4.5041L56.948 4.48236C43.5434 1.96336 40.8362 1.69447 38.6982 1.78644C38.3077 2.57088 38.227 3.59733 38.4455 5.09328C38.6855 6.73712 39.2705 8.85103 40.0862 11.6793L40.1795 12.0027L39.9149 12.2109C32.7113 17.8764 29.2542 21.4759 27.3996 24.445C25.8589 26.9113 25.4134 28.9496 24.8583 31.4892C24.7479 31.9943 24.6332 32.5192 24.5046 33.0713L24.3534 33.7209L23.7722 33.3935C21.7908 32.2772 20.077 30.9672 18.8513 29.6875C18.2386 29.0478 17.739 28.4064 17.39 27.7914C17.044 27.1818 16.8269 26.5644 16.8269 25.9824C16.8269 25.7549 16.9077 25.5319 17.0014 25.3398C17.0992 25.1393 17.2352 24.9247 17.3949 24.7025C17.7144 24.2578 18.1616 23.7375 18.6826 23.1706C19.3674 22.4255 20.206 21.5718 21.0894 20.6726C21.5473 20.2065 22.0173 19.7281 22.4841 19.2462C23.862 17.8239 25.2231 16.3606 26.2381 15.0292C26.7454 14.3636 27.157 13.7429 27.4398 13.1866C27.7263 12.6232 27.8596 12.1664 27.8596 11.8179C27.8596 11.0359 27.4589 10.0148 26.7526 8.8671C26.0563 7.73564 25.1043 6.54634 24.0941 5.44494C23.0851 4.3449 22.0284 3.34387 21.1311 2.58871C20.6822 2.21095 20.2776 1.89845 19.9421 1.66711C19.5944 1.42729 19.3575 1.30053 19.2346 1.26006C19.1967 1.24756 19.0964 1.2358 18.9019 1.31945C18.7103 1.40188 18.4723 1.55881 18.1995 1.80327C17.6554 2.29087 17.0383 3.06721 16.4485 4.0674C15.2811 6.04722 14.2692 8.8216 14.1289 11.7561C14.7107 13.7066 15.2024 14.9917 15.7391 15.9846C16.2778 16.9813 16.8712 17.701 17.6806 18.5112L18.0344 18.8653L17.6799 19.2187C17.4302 19.4675 17.1955 19.7 16.9748 19.9186C15.7501 21.1317 14.957 21.9173 14.4387 22.6999C13.8612 23.5719 13.6273 24.4445 13.6273 25.9824C13.6273 26.6338 13.9519 27.4128 14.5369 28.3165C15.115 29.2095 15.8995 30.1536 16.7293 31.1306C16.8184 31.2355 16.908 31.3408 16.998 31.4465C17.7363 32.3139 18.4923 33.202 19.1179 34.0674C19.815 35.0319 20.3921 36.0232 20.5923 36.9843C20.7942 37.9533 20.6322 38.7492 20.238 39.3816C19.8523 40.0003 19.2721 40.4184 18.7071 40.7009C18.1402 40.9844 17.5576 41.1469 17.1236 41.2389C16.905 41.2852 16.7202 41.3145 16.5887 41.3322C16.5229 41.3412 16.4702 41.3472 16.4329 41.3512C16.4143 41.3531 16.3996 41.3545 16.389 41.3555L16.3762 41.3566L16.3723 41.357L16.3699 41.3572C16.3699 41.3572 16.3699 41.3572 16.3304 40.8587Z" fill="black"/>
<path d="M29.7365 40.6153C29.7365 41.9815 28.6291 43.089 27.2629 43.089C25.8968 43.089 24.7893 41.9815 24.7893 40.6153C24.7893 39.2492 25.8968 38.1417 27.2629 38.1417C28.6291 38.1417 29.7365 39.2492 29.7365 40.6153Z" fill="white"/>
<path fill-rule="evenodd" clip-rule="evenodd" d="M27.2629 42.089C28.0768 42.089 28.7365 41.4292 28.7365 40.6153C28.7365 39.8015 28.0768 39.1417 27.2629 39.1417C26.449 39.1417 25.7893 39.8015 25.7893 40.6153C25.7893 41.4292 26.449 42.089 27.2629 42.089ZM27.2629 43.089C28.6291 43.089 29.7365 41.9815 29.7365 40.6153C29.7365 39.2492 28.6291 38.1417 27.2629 38.1417C25.8968 38.1417 24.7893 39.2492 24.7893 40.6153C24.7893 41.9815 25.8968 43.089 27.2629 43.089Z" fill="white"/>
<path d="M36.5182 47.4736C36.5182 48.8398 35.4107 49.9473 34.0446 49.9473C32.6784 49.9473 31.5709 48.8398 31.5709 47.4736C31.5709 46.1075 32.6784 45 34.0446 45C35.4107 45 36.5182 46.1075 36.5182 47.4736Z" fill="white"/>
<path fill-rule="evenodd" clip-rule="evenodd" d="M34.0446 48.9473C34.8584 48.9473 35.5182 48.2875 35.5182 47.4736C35.5182 46.6598 34.8584 46 34.0446 46C33.2307 46 32.5709 46.6598 32.5709 47.4736C32.5709 48.2875 33.2307 48.9473 34.0446 48.9473ZM34.0446 49.9473C35.4107 49.9473 36.5182 48.8398 36.5182 47.4736C36.5182 46.1075 35.4107 45 34.0446 45C32.6784 45 31.5709 46.1075 31.5709 47.4736C31.5709 48.8398 32.6784 49.9473 34.0446 49.9473Z" fill="white"/>
<path d="M44.5165 42.0688C37.6938 42.1572 32.6297 36.4457 32.6297 29.9684C32.6297 23.4912 61.6699 4.77122 64.5889 10.0384C67.5078 15.3056 51.3392 41.9804 44.5165 42.0688Z" fill="white"/>
<path fill-rule="evenodd" clip-rule="evenodd" d="M62.368 8.61694C63.5063 8.59527 64.5253 8.89225 65.0262 9.79605C65.4727 10.6017 65.5194 11.7317 65.3393 12.994C65.1562 14.2766 64.7246 15.7882 64.1118 17.4279C62.8853 20.7096 60.908 24.5703 58.6313 28.2583C56.3545 31.9463 53.7655 35.4825 51.3066 38.1091C50.0778 39.4218 48.8704 40.5194 47.7406 41.2953C46.6225 42.0632 45.5235 42.5558 44.523 42.5688C37.3924 42.6612 32.1297 36.6943 32.1297 29.9684C32.1297 28.9958 32.6627 27.8866 33.4761 26.746C34.3025 25.5872 35.4743 24.3197 36.8716 23.0155C39.6681 20.4056 43.4157 17.6045 47.247 15.1769C51.076 12.7508 55.0146 10.6812 58.1961 9.54848C59.7821 8.98377 61.2153 8.63889 62.368 8.61694ZM34.2903 27.3267C33.5041 28.429 33.1297 29.3217 33.1297 29.9684C33.1297 36.1971 37.9951 41.6533 44.51 41.5688C45.2152 41.5597 46.1139 41.1993 47.1745 40.471C48.2235 39.7506 49.3757 38.7086 50.5766 37.4258C52.977 34.8615 55.527 31.3832 57.7804 27.733C60.0337 24.0829 61.9777 20.2817 63.1751 17.0778C63.7743 15.4746 64.1802 14.0374 64.3493 12.8527C64.5213 11.6477 64.4348 10.792 64.1515 10.2808C63.9227 9.86777 63.3957 9.59755 62.3871 9.61676C61.393 9.63569 60.0785 9.93975 58.5315 10.4905C55.4469 11.5888 51.5783 13.6164 47.7823 16.0216C43.9887 18.4253 40.2938 21.1894 37.554 23.7466C36.1831 25.026 35.0634 26.2425 34.2903 27.3267Z" fill="white"/>
</svg>
