<svg width="74" height="75" viewBox="0 0 74 75" fill="none" xmlns="http://www.w3.org/2000/svg">
<path d="M56.5224 3.96904C63.7701 1.91129 67.8046 0.786755 72.5127 1.27908C73.3002 2.92858 73.4253 4.68307 69.7658 17.9885C72.4308 28.0971 73.7362 33.4321 72.3994 36.4949C71.1915 37.1671 67.9169 36.4858 61.9362 35.2137C55.7756 42.8182 54.2451 48.4672 40.8673 50.873C42.6516 53.3579 43.9471 54.7248 47.3445 57.0655H49.2664C55.0091 51.1651 58.4644 46.6359 63.075 46.6023C65.679 46.4732 67.6276 48.093 71.6876 53.0084C73.2217 54.9134 73.4314 55.9634 71.6876 57.7773C65.2499 62.2105 61.5799 61.8574 54.9607 57.7773L50.9746 61.0516C50.9746 61.0516 48.0229 62.0935 46.2769 61.0516C44.5309 60.0096 38.6319 54.6192 37.3795 54.4319C36.1271 54.2447 33.7433 55.5202 33.4647 58.3468C33.9874 60.9196 38.8014 65.3661 39.0166 67.3865C39.2318 69.4068 37.5047 71.8038 35.5289 73.4366C33.2303 73.7991 32.2976 73.4997 32.4682 70.376C34.1967 69.6771 34.6235 69.0101 34.5324 67.3865C30.7939 61.9771 29.0946 60.5073 26.7027 60.4109C25.3157 60.6069 24.5095 60.8079 22.5744 62.7598C20.4103 65.1646 19.9002 66.5264 22.5744 69.0236C24.0723 70.4913 24.997 70.3684 26.7027 69.5218C28.3881 70.8727 28.4429 71.724 26.7027 73.4366C24.8972 74.1588 24.0156 74.0757 22.5744 73.4366C18.6219 71.5849 16.6973 68.7902 16.8089 66.2476C16.9205 63.705 17.7436 62.2888 21.0796 57.5638C22.1546 55.585 21.9303 54.7148 21.0796 53.2931C19.3893 52.2793 18.3426 51.9846 15.8124 53.2931C13.0606 55.9675 11.4446 57.1725 8.12511 57.5638L4.85089 56.9232C2.62303 56.4827 1.68238 55.2861 0.722525 50.9442V47.67C2.45547 45.6965 3.35018 45.8471 4.85089 47.67V50.9442C5.24899 52.7543 5.98201 53.2524 8.12511 53.2931C10.5915 52.6209 11.8756 51.7201 13.9618 49.0224V46.1752C11.3796 43.1628 10.0896 41.1167 6.77271 39.7691C5.39999 39.8897 4.67482 40.2761 3.4629 41.513C0.950251 41.7126 0.331859 41.129 0.722525 38.7726C1.95 36.8254 2.87265 35.8718 6.77271 35.4984C8.54568 35.8984 10.8362 37.3656 15.8124 40.8368C15.8124 40.8368 20.2967 40.4809 19.5849 37.0643C18.8731 33.6478 12.6094 29.1635 12.6094 25.9605C12.6094 22.7574 13.5948 22.0465 16.8089 18.8426C15.1452 17.1773 14.2992 15.811 13.1076 11.7959C13.3656 5.67694 17.3071 0.2474 18.8731 0.763242C20.439 1.27908 27.8416 8.09464 27.8416 11.7959C27.8416 15.4972 16.8089 24.1098 16.8089 25.9605C16.8089 27.8111 19.6067 30.7427 23.4997 32.936C25.0287 26.3696 24.6622 23.1415 39.0878 11.7959C37.4615 6.15732 36.7039 3.20066 37.8778 1.27908C40.1507 1.15014 42.5614 1.34549 56.5224 3.96904Z" fill="black" stroke="black"/>
<circle cx="26.7449" cy="40.5934" r="1.97363" fill="white" stroke="white"/>
<circle cx="33.5266" cy="47.4517" r="1.97363" fill="white" stroke="white"/>
</svg>
